<?xml version="1.0" standalone="no"?>
<!DOCTYPE svg PUBLIC "-//W3C//DTD SVG 1.1//EN" "http://www.w3.org/Graphics/SVG/1.1/DTD/svg11.dtd" >
<svg xmlns="http://www.w3.org/2000/svg">
<metadata></metadata>
<defs>
<font id="thai_sans_literegular" horiz-adv-x="0" >
<font-face units-per-em="1000" ascent="800" descent="-200" />
<missing-glyph horiz-adv-x="322" />
<glyph unicode="vender_chk" horiz-adv-x="1346" d="M1165 523l136 -428l-126 239h-66l-51 -98l-53 98h-63l-139 -263q-16 33 -32 55t-32 41q1 0 7 5.5t13 16t13 26t6 36.5q0 19 -5.5 36.5t-18.5 31t-34 21.5t-52 8h-107v-244l-223 419h827zM305 48h-223l223 417l250 -466h-250v49zM231 523h42l-233 -436zM1142 274l146 -275 h-292zM617 299h51q32 0 44.5 -14.5t12.5 -33.5q0 -21 -8.5 -37t-19 -26.5t-19.5 -15.5t-10 -5q2 -2 17 -17.5t32.5 -38.5t32 -52.5t16.5 -59.5h-149v300zM973 274l52 -99l-93 -176h-105z" />
<glyph unicode="&#xd;" horiz-adv-x="322" />
<glyph unicode=" "  horiz-adv-x="322" />
<glyph unicode="&#x09;" horiz-adv-x="322" />
<glyph unicode="&#xa0;" horiz-adv-x="322" />
<glyph unicode="!" horiz-adv-x="154" d="M45 56h56v-56h-56v56zM45 525h56v-420h-56v420z" />
<glyph unicode="&#x22;" horiz-adv-x="270" d="M110 525v-165h-56v165h56zM215 525v-165h-56v165h56z" />
<glyph unicode="#" horiz-adv-x="519" d="M78 350h77l38 140h58l-38 -140h140l38 140h58l-38 -140h86l-13 -49h-86l-28 -105h86l-14 -49h-85l-39 -147h-58l39 147h-140l-39 -147h-58l39 147h-76l13 49h75l28 105h-75zM172 196h140l28 105h-140z" />
<glyph unicode="$" horiz-adv-x="358" d="M307 387q-4 9 -12.5 20t-23.5 20t-37 15t-53 6q-18 0 -35 -5t-30.5 -14t-21.5 -22t-8 -28q0 -28 18.5 -44t46.5 -27.5t61 -21.5t61 -27t46.5 -44t18.5 -72q0 -27 -6 -52.5t-22.5 -46t-44.5 -34t-72 -16.5v-78h-57v78q-53 3 -78.5 13.5t-33.5 19.5v67q15 -17 48.5 -34.5 t93.5 -17.5q55 0 85.5 26.5t30.5 74.5q0 34 -19 53t-48 31.5t-62 21.5t-62 24t-48 39.5t-19 66.5q0 47 33 75.5t79 38.5v81h57v-78q51 -2 77 -13.5t37 -22.5v-73z" />
<glyph unicode="%" horiz-adv-x="568" d="M95 0l336 602h63l-336 -602h-63zM162 420q0 56 -11.5 74.5t-27.5 18.5q-17 0 -27.5 -18.5t-10.5 -75.5q0 -29 3 -46t8 -26.5t12 -12.5t15 -3t15 3.5t12.5 13t8.5 27t3 45.5zM120 282q-40 0 -66.5 33t-26.5 102q0 72 27.5 108.5t70.5 36.5q42 0 67.5 -34.5t25.5 -104.5 q0 -69 -28 -105t-70 -36zM470 124q0 56 -11.5 74.5t-27.5 18.5q-17 0 -27.5 -18.5t-10.5 -75.5q0 -29 3 -46t8 -26.5t12 -12.5t15 -3t15 3.5t12.5 13t8.5 27t3 45.5zM428 -14q-40 0 -66.5 33t-26.5 102q0 72 27.5 108.5t70.5 36.5q42 0 67.5 -34.5t25.5 -104.5 q0 -69 -28 -105t-70 -36z" />
<glyph unicode="&#x26;" horiz-adv-x="548" d="M522 0q-51 0 -84 16.5t-56 43.5q-67 -67 -178 -67q-78 0 -122 31t-44 103q0 54 28.5 92t85.5 64q-22 14 -39.5 40.5t-17.5 64.5q0 54 36 81.5t94 27.5q24 0 46.5 -7t39.5 -19.5t27 -31t10 -41.5q0 -46 -25.5 -73t-73.5 -47q52 -28 83.5 -63.5t53.5 -69.5q32 47 47.5 98.5 t15.5 89.5v17h53q-1 -29 -7 -61t-16.5 -65t-25.5 -64t-35 -58q19 -24 42.5 -38.5t61.5 -14.5v-49zM204 42q89 0 145 57q-14 21 -29 42.5t-33 41.5t-40.5 37t-51.5 28q-23 -10 -42 -20t-32 -23.5t-20 -32t-7 -45.5q0 -25 8.5 -41.5t23.5 -26t35 -13.5t43 -4zM292 398 q0 12 -7 21t-17.5 15t-22 9t-20.5 3q-38 0 -56 -17t-18 -41q0 -27 13 -49t40 -37q88 33 88 96z" />
<glyph unicode="'" horiz-adv-x="169" d="M110 525v-165h-56v165h56z" />
<glyph unicode="(" horiz-adv-x="219" d="M143 -141q-60 67 -90 147.5t-30 180.5q0 103 30 185t90 152h55q-119 -146 -119 -337q0 -188 119 -328h-55z" />
<glyph unicode=")" horiz-adv-x="219" d="M21 -141q119 140 119 328q0 191 -119 337h55q60 -70 90 -152t30 -185q0 -100 -30 -180.5t-90 -147.5h-55z" />
<glyph unicode="*" horiz-adv-x="269" d="M109 427l-82 42l33 45l58 -55l-12 80h56l-11 -80l58 55l33 -45l-82 -42l82 -42l-33 -45l-58 55l11 -80h-56l12 80l-58 -55l-33 45z" />
<glyph unicode="+" horiz-adv-x="319" d="M188 364v-119h122v-56h-122v-126h-56v126h-123v56h123v119h56z" />
<glyph unicode="," horiz-adv-x="155" d="M70 56h56v-56q0 -13 -7 -28t-17 -29.5t-22.5 -28t-22.5 -23.5h-42l27 44q11 18 18.5 36t9.5 29v56z" />
<glyph unicode="-" horiz-adv-x="305" d="M54 242h196v-49h-196v49z" />
<glyph unicode="." horiz-adv-x="169" d="M54 56h56v-56h-56v56z" />
<glyph unicode="/" horiz-adv-x="230" d="M7 0l161 602h56l-161 -602h-56z" />
<glyph unicode="0" horiz-adv-x="443" d="M348 241q0 53 -10 92t-27.5 64.5t-40.5 38t-49 12.5t-48.5 -12.5t-39.5 -38.5t-27 -65.5t-10 -93.5q0 -51 10 -88t27 -61t39.5 -35.5t48.5 -11.5t49 12t40.5 36.5t27.5 62t10 88.5zM404 246q0 -63 -15 -110.5t-40.5 -79t-59.5 -47.5t-73 -16q-38 0 -70.5 15t-56 45 t-36.5 75.5t-13 106.5q0 65 13.5 114t38.5 82t58.5 49.5t74.5 16.5q39 0 72 -15t56.5 -46t37 -78.5t13.5 -111.5z" />
<glyph unicode="1" horiz-adv-x="221" d="M165 0h-54v410q-8 -5 -20 -12t-26.5 -14.5t-31 -13.5t-32.5 -9v49q37 14 65 38t45 42h54v-490z" />
<glyph unicode="2" horiz-adv-x="372" d="M272 364q0 46 -24.5 68.5t-62.5 22.5q-32 0 -66 -17t-57 -41v60q21 22 52 34.5t71 12.5q63 0 103.5 -35t40.5 -99q0 -37 -16 -68t-40.5 -58.5t-53 -52t-54 -48t-43.5 -47t-21 -47.5h246v-49h-303v46q0 29 17 56t42 52.5t55 50.5t55 50.5t42 52.5t17 56z" />
<glyph unicode="3" horiz-adv-x="360" d="M324 134q0 -69 -46 -105t-124 -36q-36 0 -64 3t-49 15v62q24 -20 51.5 -25.5t61.5 -5.5q48 0 80.5 20.5t32.5 66.5q0 24 -9 42.5t-30 31t-55.5 19t-84.5 6.5v47q25 1 53.5 5.5t53 14.5t40.5 27.5t16 44.5q0 45 -23 63t-57 18q-27 0 -59 -5t-55 -22v54q24 15 51 18.5 t63 3.5q29 0 53.5 -8.5t42.5 -24t28 -36.5t10 -45q0 -100 -96 -130q23 -4 44 -13.5t36.5 -24.5t25 -35.5t9.5 -45.5z" />
<glyph unicode="4" horiz-adv-x="377" d="M235 168v237l-166 -237h166zM287 490v-322h64v-49h-64v-119h-52v119h-229v49l226 322h55z" />
<glyph unicode="5" horiz-adv-x="348" d="M322 146q0 -75 -48 -114t-129 -39q-34 0 -58 1.5t-40 9.5v60q26 -16 48.5 -19.5t49.5 -3.5q57 0 87.5 25t30.5 76t-32.5 79.5t-84.5 28.5q-23 0 -40 -1t-29 -3l-23 -3v247h232v-49h-176v-148l11 1q6 1 12 1h13q85 0 130.5 -40t45.5 -109z" />
<glyph unicode="6" horiz-adv-x="388" d="M297 143q0 54 -27 85t-75 31q-42 0 -70 -29.5t-28 -72.5q0 -54 27 -84.5t76 -30.5q42 0 69.5 25t27.5 76zM354 153q0 -39 -12.5 -68.5t-34 -50t-50.5 -31t-62 -10.5q-157 0 -157 221q0 63 14 115.5t40 89.5t63 57.5t84 20.5q21 0 38 -1t28 -4l18 -5v-50q-9 3 -27.5 7 t-56.5 4q-34 0 -60.5 -14.5t-45 -41.5t-28.5 -64.5t-10 -83.5q34 64 114 64q32 0 59 -12t46 -33t29.5 -49.5t10.5 -60.5z" />
<glyph unicode="7" horiz-adv-x="341" d="M326 456l-180 -456h-56l168 441h-243v49h311v-34z" />
<glyph unicode="8" horiz-adv-x="393" d="M117 368q0 -33 21.5 -57t58.5 -24q16 0 30.5 6.5t26 17.5t18 25.5t6.5 31.5t-6.5 32t-18 25.5t-26 16.5t-30.5 6q-39 0 -59.5 -22.5t-20.5 -57.5zM197 238q-42 0 -69 -28.5t-27 -73.5q0 -51 25 -72.5t71 -21.5q44 0 73.5 22t29.5 72q0 19 -7.5 37.5t-21 33t-32.5 23 t-42 8.5zM60 374q0 26 10 48.5t28 39t43.5 26t55.5 9.5q28 0 53 -10t44 -26.5t30 -39t11 -47.5q0 -34 -19.5 -63.5t-50.5 -46.5q45 -20 68.5 -55.5t23.5 -77.5q0 -33 -12.5 -58.5t-34 -43t-50.5 -27t-63 -9.5q-72 0 -116 36t-44 102q0 43 23 77.5t66 55.5q-31 17 -48.5 46.5 t-17.5 63.5z" />
<glyph unicode="9" horiz-adv-x="384" d="M286 328q0 57 -24 92t-72 35q-20 0 -38 -9.5t-31.5 -25.5t-21.5 -37.5t-8 -44.5q0 -52 25.5 -79.5t73.5 -27.5q25 0 43 10t30 25t17.5 31.5t5.5 30.5zM346 274q0 -148 -55 -214.5t-155 -66.5q-20 0 -40 1.5t-36 8.5v53q13 -6 34.5 -10t52.5 -4q69 0 106 48t37 142 q-9 -16 -22 -25.5t-28 -15t-30 -7.5t-27 -2q-32 0 -59 11.5t-47 32t-31.5 49t-11.5 63.5q0 34 11 64.5t31.5 53t49.5 35.5t64 13q36 0 65 -16t49 -46t31 -72.5t11 -95.5z" />
<glyph unicode=":" horiz-adv-x="118" d="M54 350h56v-56h-56v56zM54 56h56v-56h-56v56z" />
<glyph unicode=";" horiz-adv-x="141" d="M60 350h56v-56h-56v56zM60 56h56v-56q0 -13 -7 -28t-17 -29.5t-22.5 -28t-22.5 -23.5h-42l27 44q11 18 18.5 36t9.5 29v56z" />
<glyph unicode="&#x3c;" horiz-adv-x="388" d="M334 -14l-332 166v26l332 186v-56l-252 -143l252 -123v-56z" />
<glyph unicode="=" horiz-adv-x="379" d="M54 276h301v-48h-301v48zM54 172h301v-49h-301v49z" />
<glyph unicode="&#x3e;" horiz-adv-x="388" d="M54 42l252 123l-252 143v56l332 -186v-26l-332 -166v56z" />
<glyph unicode="?" horiz-adv-x="271" d="M83 105v111q0 29 19 48t42 36.5t42 36t19 47.5q0 35 -22.5 49.5t-51.5 14.5q-34 0 -62 -7.5t-49 -32.5v62q25 16 52 21.5t59 5.5q24 0 47.5 -6.5t41.5 -19.5t29 -33.5t11 -47.5q0 -39 -19 -63t-41.5 -41.5t-41.5 -32.5t-19 -37v-111h-56zM83 56h56v-56h-56v56z" />
<glyph unicode="@" horiz-adv-x="636" d="M319 295q-40 0 -68.5 -28.5t-28.5 -82.5q0 -47 18.5 -67t40.5 -20q42 0 65 33t23 108q0 25 -13.5 41t-36.5 16zM382 127q-18 -42 -40.5 -60.5t-60.5 -18.5q-23 0 -43.5 8t-36.5 24.5t-25.5 42.5t-9.5 61q0 33 12.5 62t33.5 51t48.5 34.5t58.5 12.5q28 0 46.5 -13.5 t26.5 -30.5l8 40h56l-28 -164q0 -13 2 -27t5.5 -25.5t10 -19t15.5 -7.5q22 0 38.5 13.5t27 33t15.5 42t5 40.5q0 29 -14 63t-41 63.5t-67.5 49t-94.5 19.5t-98 -22.5t-74.5 -57t-47.5 -76t-17 -78.5q0 -40 14.5 -78.5t43 -68.5t70.5 -48.5t98 -18.5q39 0 76 7.5t68 19.5v-53 q-67 -23 -144 -23q-60 0 -111.5 19.5t-89.5 54t-59.5 83t-21.5 106.5q0 59 23.5 110.5t63.5 90t93 60.5t113 22q58 0 108 -18.5t86.5 -51t57.5 -77.5t21 -97q0 -41 -11.5 -73.5t-31 -56t-45.5 -36t-54 -12.5q-40 0 -58 18.5t-21 60.5z" />
<glyph unicode="A" horiz-adv-x="447" d="M433 0h-56l-50 135h-207l-50 -135h-56l180 490h59zM307 184l-86 242l-87 -242h173z" />
<glyph unicode="B" horiz-adv-x="385" d="M110 230v-181h76q51 0 81 26t30 64q0 91 -122 91h-65zM110 441v-165h59q46 0 74.5 24.5t28.5 64.5q0 35 -24.5 55.5t-72.5 20.5h-65zM54 0v490h136q67 0 103.5 -32t36.5 -83q0 -39 -24 -71.5t-62 -44.5q48 -8 79.5 -38.5t31.5 -81.5q0 -31 -12 -56.5t-33.5 -44 t-51.5 -28.5t-66 -10h-138z" />
<glyph unicode="C" horiz-adv-x="447" d="M402 19q-30 -18 -64 -22t-74 -4q-54 0 -97.5 17t-74 48.5t-47 76.5t-16.5 102q0 63 19.5 111.5t55 81.5t84 50t105.5 17q33 0 59.5 -2t49.5 -13v-60q-30 14 -60 20t-61 6q-42 0 -78 -15.5t-62 -43t-41 -66.5t-15 -86q0 -94 50 -144.5t135 -50.5q38 0 70 8t62 23v-54z" />
<glyph unicode="D" horiz-adv-x="475" d="M110 441v-392h71q96 0 151.5 53t55.5 147q0 192 -204 192h-74zM54 0v490h133q258 0 258 -241q0 -56 -18.5 -102t-53 -78.5t-83.5 -50.5t-109 -18h-127z" />
<glyph unicode="E" horiz-adv-x="326" d="M313 0h-259v490h259v-49h-203v-172h182v-48h-182v-172h203v-49z" />
<glyph unicode="F" horiz-adv-x="313" d="M110 0h-56v490h259v-49h-203v-172h182v-48h-182v-221z" />
<glyph unicode="G" horiz-adv-x="485" d="M436 26q-38 -22 -79 -27.5t-89 -5.5q-53 0 -97 16.5t-75 48t-48 76.5t-17 101q0 58 19 106.5t53 83t81.5 53.5t103.5 19q40 0 74.5 -3.5t63.5 -18.5v-63q-31 20 -67.5 28t-76.5 8q-43 0 -79 -15.5t-61.5 -44t-40 -67.5t-14.5 -86q0 -96 50.5 -144.5t137.5 -48.5 q32 0 57 4t47 16v141h-111v49h168v-226z" />
<glyph unicode="H" horiz-adv-x="477" d="M422 0h-56v228h-256v-228h-56v490h56v-214h256v214h56v-490z" />
<glyph unicode="I" horiz-adv-x="171" d="M54 490h56v-490h-56v490z" />
<glyph unicode="J" horiz-adv-x="230" d="M184 172q0 -91 -37 -138.5t-101 -47.5q-16 0 -27 2.5t-19 4.5v55q10 -8 21.5 -10.5t24.5 -2.5q40 0 61 35.5t21 101.5v318h56v-318z" />
<glyph unicode="K" horiz-adv-x="428" d="M333 0l-126 274l-97 -121v-153h-56v490h56v-248l199 248h70l-133 -167l149 -323h-62z" />
<glyph unicode="L" horiz-adv-x="308" d="M308 0h-254v490h55v-441h199v-49z" />
<glyph unicode="M" horiz-adv-x="605" d="M550 0h-54v405l-182 -405h-27l-178 403q2 -3 2 -8v-5v-390h-57v490h75l173 -397l178 397h70v-490z" />
<glyph unicode="N" horiz-adv-x="498" d="M444 0h-70l-264 407v-407h-56v490h71l263 -412v412h56v-490z" />
<glyph unicode="O" horiz-adv-x="541" d="M265 -7q-51 0 -93.5 17t-72.5 48.5t-46.5 77t-16.5 102.5q0 123 63.5 191t175.5 68q52 0 94.5 -17.5t73 -50t47 -78t16.5 -102.5q0 -125 -64.5 -190.5t-176.5 -65.5zM265 42q88 0 136.5 55t48.5 152q0 44 -12.5 80.5t-35.5 63t-55.5 41t-71.5 14.5q-87 0 -135 -57 t-48 -153q0 -44 12.5 -80.5t35 -62t54.5 -39.5t71 -14z" />
<glyph unicode="P" horiz-adv-x="354" d="M111 441v-208h61q60 0 91.5 29.5t31.5 77.5q0 49 -24.5 75t-84.5 26h-75zM111 184v-184h-57v490h132q79 0 122 -37.5t43 -112.5q0 -72 -47 -114t-132 -42h-61z" />
<glyph unicode="Q" horiz-adv-x="529" d="M253 -7q-52 0 -94.5 17t-72.5 48.5t-46.5 77t-16.5 102.5q0 61 16.5 110t47.5 83.5t75 53.5t100 19q52 0 95 -18.5t73.5 -52t47 -80.5t16.5 -104q0 -82 -29.5 -139t-84.5 -88q13 -4 27 -11t26 -18.5t20 -27t8 -35.5h-56q0 15 -10.5 27.5t-24 21.5t-27 14.5t-20.5 7.5 q-17 -4 -34.5 -6t-35.5 -2zM253 42q42 0 76.5 14.5t58.5 41.5t37 65t13 86q0 44 -12.5 82t-36 65.5t-56 43t-71.5 15.5q-42 0 -76 -16t-58 -45t-36.5 -68.5t-12.5 -87.5q0 -44 12.5 -80.5t35 -62t55 -39.5t71.5 -14z" />
<glyph unicode="R" horiz-adv-x="424" d="M109 441v-181h79q42 0 73 24t31 72q0 38 -28 61.5t-76 23.5h-79zM404 0h-68l-85 136q-22 35 -42 53t-53 18h-47v-207h-56v490h147q30 0 56.5 -8.5t47 -25.5t32.5 -42t12 -58q0 -51 -31.5 -85t-79.5 -45q23 -6 40 -29.5t34 -50.5z" />
<glyph unicode="S" horiz-adv-x="388" d="M324 408q-11 13 -42 26.5t-85 13.5q-17 0 -33.5 -5t-30 -14t-22 -22t-8.5 -28q0 -28 18.5 -44t46.5 -27.5t61 -21.5t61 -27t46.5 -44t18.5 -72q0 -29 -7 -56t-26.5 -48t-53 -33.5t-85.5 -12.5q-34 0 -58 3t-40.5 8t-27 11t-16.5 12v67q13 -17 47.5 -34.5t94.5 -17.5 q55 0 85.5 26.5t30.5 74.5q0 34 -19 53t-48 31.5t-62 21.5t-62 24t-48 39.5t-19 66.5q0 29 13.5 51t35 37t49.5 22.5t58 7.5q58 0 87.5 -8.5t39.5 -14.5v-66z" />
<glyph unicode="T" horiz-adv-x="348" d="M342 441h-140v-441h-56v441h-140v49h336v-49z" />
<glyph unicode="U" horiz-adv-x="461" d="M414 193q0 -103 -47 -151.5t-141 -48.5q-91 0 -134.5 45.5t-43.5 147.5v304h56v-300q0 -78 28 -113t94 -35q64 0 97.5 33.5t33.5 108.5v306h57v-297z" />
<glyph unicode="V" horiz-adv-x="445" d="M376 490h56l-179 -490h-60l-180 490h56l152 -426z" />
<glyph unicode="W" horiz-adv-x="680" d="M651 490l-139 -490h-60l-112 391l-108 -391h-63l-140 490h56l116 -423l121 423h42l116 -416l115 416h56z" />
<glyph unicode="X" horiz-adv-x="468" d="M430 0h-72l-123 206l-131 -206h-68l161 244l-149 246h68l119 -209l123 209h69l-155 -246z" />
<glyph unicode="Y" horiz-adv-x="395" d="M385 490l-161 -311v-179h-56v176l-158 314h62l123 -251l132 251h58z" />
<glyph unicode="Z" horiz-adv-x="415" d="M391 475l-287 -426h282v-49h-364v15l283 426h-262v49h348v-15z" />
<glyph unicode="[" horiz-adv-x="218" d="M54 525h152v-49h-98v-568h98v-49h-152v666z" />
<glyph unicode="\" horiz-adv-x="230" d="M167 0l-161 602h56l161 -602h-56z" />
<glyph unicode="]" horiz-adv-x="219" d="M163 -141h-152v49h98v568h-98v49h152v-666z" />
<glyph unicode="^" horiz-adv-x="417" d="M21 193l166 332h26l186 -332h-56l-143 252l-123 -252h-56z" />
<glyph unicode="_" horiz-adv-x="410" d="M54 0h301v-49h-301v49z" />
<glyph unicode="`" horiz-adv-x="159" d="M143 441h-46l-88 112h56z" />
<glyph unicode="a" horiz-adv-x="368" d="M45 303q17 20 47.5 37t75.5 17q26 0 53.5 -7t49.5 -22.5t36 -39.5t14 -58v-230h-56v32q-14 -17 -37.5 -28t-59.5 -11q-24 0 -46.5 5.5t-40 17t-28 29.5t-10.5 44q3 35 21 55t42.5 30t52.5 13.5t51.5 7.5t39 11t15.5 24q0 38 -26 58t-71 20q-40 0 -67 -18.5t-43 -41.5z M174 42q34 0 56.5 13t34.5 30v80q-10 -7 -29.5 -13.5t-50.5 -6.5q-12 0 -27 -3t-28 -9.5t-22 -17.5t-9 -26q0 -17 8 -26.5t19.5 -14t24.5 -5.5t23 -1z" />
<glyph unicode="b" horiz-adv-x="382" d="M110 162q0 -22 7.5 -43.5t21.5 -38.5t32.5 -27.5t41.5 -10.5q51 0 79.5 34.5t28.5 109.5q0 60 -20.5 91t-68.5 31q-24 0 -46 -10t-39 -28t-27 -42t-10 -51v-15zM110 0h-57v525h57v-232q22 36 52 50t70 14q69 0 107 -43t38 -128q0 -44 -11.5 -79.5t-32.5 -60.5t-51.5 -39 t-68.5 -14q-36 0 -61 13t-42 42v-48z" />
<glyph unicode="c" horiz-adv-x="354" d="M302 11q-20 -13 -42.5 -15.5t-48.5 -2.5q-83 0 -132.5 43t-49.5 133q0 43 14 78t38.5 59.5t58 37.5t73.5 13q19 0 35 -1.5t28 -3.5l26 -4v-58q-22 10 -44 14t-45 4q-128 0 -128 -139q0 -67 29.5 -97t90.5 -30q28 0 51.5 5t45.5 16v-52z" />
<glyph unicode="d" horiz-adv-x="384" d="M273 177q0 27 -10 52t-27 44t-39 30.5t-46 11.5q-48 0 -68.5 -34.5t-20.5 -94.5q0 -75 28.5 -109.5t79.5 -34.5q22 0 41 10.5t33 27.5t21.5 38.5t7.5 43.5v15zM273 48q-17 -29 -42 -42t-61 -13q-38 0 -68.5 14t-51.5 39t-32.5 60.5t-11.5 79.5q0 82 39.5 130t105.5 48 q78 0 122 -71v232h57v-525h-57v48z" />
<glyph unicode="e" horiz-adv-x="378" d="M288 207q-2 51 -26 76t-66 25t-70 -26t-35 -75h197zM345 158h-254q0 -63 32.5 -89.5t83.5 -26.5q45 0 70.5 11.5t41.5 23.5v-49q-16 -12 -41.5 -23.5t-70.5 -11.5q-38 0 -69.5 10.5t-54.5 32.5t-36 56t-13 82q0 40 12 74t34 58t51.5 37.5t64.5 13.5q70 0 109.5 -41.5 t39.5 -126.5v-31z" />
<glyph unicode="f" horiz-adv-x="248" d="M237 301h-103v-308h-58v308h-71v49h71v47q0 60 24 94t76 34q37 0 61 -11v-57q-7 9 -17.5 12t-24.5 3q-33 0 -47 -16t-14 -59v-47h103v-49z" />
<glyph unicode="g" horiz-adv-x="412" d="M309 189q-6 18 -14.5 39t-22 38.5t-32 29.5t-43.5 12q-27 0 -47.5 -12t-35 -32t-22 -45t-7.5 -51t7.5 -49t22 -40t35 -27t47.5 -10q26 0 44.5 9.5t31.5 24t21.5 32t14.5 32.5v49zM73 -113q28 -13 53 -20.5t47 -7.5q136 0 136 142v43q-12 -17 -23.5 -27.5t-24 -15.5 t-28 -6.5t-36.5 -1.5q-35 0 -65.5 12.5t-53 35.5t-36 55t-13.5 72q0 48 13.5 83.5t36 59t53 35t65.5 11.5q42 0 67 -13.5t45 -44.5v51h56v-339q0 -103 -46 -151.5t-146 -48.5q-64 0 -113 20z" />
<glyph unicode="h" horiz-adv-x="391" d="M298 0v236q0 36 -26.5 57.5t-64.5 21.5q-19 0 -36.5 -9t-31 -27t-21.5 -44t-8 -60v-175h-57v525h57v-221q4 14 14 25t23.5 19t29 12t30.5 4q72 0 109.5 -37t37.5 -94v-233h-56z" />
<glyph unicode="i" horiz-adv-x="156" d="M47 350h56v-350h-56v350zM47 462h56v-56h-56v56z" />
<glyph unicode="j" horiz-adv-x="143" d="M-43 -125q3 -1 9 -1q40 0 61 28.5t21 91.5v356h56v-344q0 -91 -36 -136t-102 -45q-5 0 -10 0.5t-10 1.5h-2zM48 462h56v-56h-56v56z" />
<glyph unicode="k" horiz-adv-x="351" d="M333 350l-92 -115l108 -235h-61l-86 186l-93 -116v-70h-56v525h56v-367l153 192h71z" />
<glyph unicode="l" horiz-adv-x="169" d="M53 525h56v-525h-56v525z" />
<glyph unicode="m" horiz-adv-x="650" d="M543 0v236q0 36 -26.5 54t-64.5 18q-19 0 -36.5 -8t-31 -24.5t-21.5 -41.5t-8 -59v-175h-57v236q0 36 -26.5 54t-64.5 18q-19 0 -36.5 -8t-31 -24.5t-21.5 -41.5t-8 -59v-175h-57v350h57v-46q4 14 14 24t23.5 16.5t29 9.5t30.5 3q99 0 131 -60q16 28 42.5 44t71.5 16 q73 0 110 -34.5t37 -89.5v-233h-56z" />
<glyph unicode="n" horiz-adv-x="403" d="M298 0v236q0 36 -26.5 54t-64.5 18q-19 0 -36.5 -8t-31 -24.5t-21.5 -41.5t-8 -59v-175h-57v350h57v-46q4 14 14 24t23.5 16.5t29 9.5t30.5 3q73 0 110 -34.5t37 -89.5v-233h-56z" />
<glyph unicode="o" horiz-adv-x="412" d="M202 -7q-75 0 -121 46t-46 131q0 91 45 139t130 48q37 0 68 -12.5t53.5 -36t34.5 -56.5t12 -74q0 -94 -45.5 -139.5t-130.5 -45.5zM202 42q57 0 88.5 36t31.5 100q0 58 -30.5 94t-81.5 36q-54 0 -86.5 -37.5t-32.5 -100.5q0 -58 30 -93t81 -35z" />
<glyph unicode="p" horiz-adv-x="382" d="M110 173q0 -27 10 -51t27 -42t39 -28t46 -10q48 0 68.5 31t20.5 91q0 75 -28.5 109.5t-79.5 34.5q-23 0 -41.5 -10.5t-32.5 -27.5t-21.5 -38.5t-7.5 -43.5v-15zM110 302q17 29 42 42t61 13q38 0 68.5 -14t51.5 -39t32.5 -61t11.5 -79q0 -85 -38 -128t-107 -43 q-40 0 -70 14t-52 50v-232h-57v525h57v-48z" />
<glyph unicode="q" horiz-adv-x="384" d="M272 188q0 22 -7.5 43.5t-21.5 38.5t-33 27.5t-41 10.5q-51 0 -79 -34.5t-28 -109.5q0 -60 20 -91t69 -31q23 0 45 10t39 28t27 42t10 51v15zM272 350h57v-525h-57v232q-21 -36 -51.5 -50t-69.5 -14q-69 0 -107 43t-38 128q0 87 43 140t120 53q36 0 61.5 -13t41.5 -42v48 z" />
<glyph unicode="r" horiz-adv-x="238" d="M236 292q-6 5 -14 10.5t-20 5.5q-18 0 -35 -17t-30 -42.5t-20.5 -57t-7.5 -59.5v-132h-56v350h56v-85q12 38 37 65t56 27q16 0 27 -3l7 -4v-58z" />
<glyph unicode="s" horiz-adv-x="305" d="M249 282q-11 8 -32.5 17t-61.5 9q-25 0 -41.5 -7t-16.5 -29q0 -21 13 -31.5t32 -17.5t41.5 -13.5t41.5 -18.5t32 -33.5t13 -58.5q0 -21 -5 -40t-19 -33.5t-38.5 -23.5t-62.5 -9q-50 0 -72.5 7t-31.5 15v64q10 -13 34.5 -25t69.5 -12q42 0 59 12t17 45q0 26 -13.5 40 t-33.5 22.5t-43 15t-43 17t-33.5 28.5t-13.5 50q0 21 10 37t26 26.5t36.5 16t41.5 5.5q43 0 63.5 -4.5t30.5 -9.5v-61z" />
<glyph unicode="t" horiz-adv-x="249" d="M5 350h71v175h58v-175h103v-49h-103v-180q0 -43 14 -59t47 -16q30 0 42 15v-57q-24 -11 -61 -11q-52 0 -76 34t-24 94v180h-71v49z" />
<glyph unicode="u" horiz-adv-x="403" d="M104 350v-236q0 -36 26.5 -54t64.5 -18q19 0 36.5 8t31 24.5t21.5 41.5t8 59v175h57v-350h-57v46q-4 -14 -14.5 -24t-24 -16.5t-29 -9.5t-29.5 -3q-73 0 -110 34.5t-37 89.5v233h56z" />
<glyph unicode="v" horiz-adv-x="354" d="M340 350l-139 -350h-55l-131 350h59l101 -293l106 293h59z" />
<glyph unicode="w" horiz-adv-x="545" d="M516 350l-106 -350h-58l-78 269l-86 -269h-56l-102 350h56l80 -285l87 285h49l82 -290l77 290h55z" />
<glyph unicode="x" horiz-adv-x="376" d="M336 350l-118 -180l118 -170h-64l-86 139l-85 -139h-62l117 170l-114 180h65l83 -150l84 150h62z" />
<glyph unicode="y" horiz-adv-x="373" d="M60 -132q1 -1 7 -1q29 0 45 8.5t29 41.5l29 75l-137 358h63l104 -302l110 302h60l-164 -421q-44 -111 -125 -111q-11 0 -18.5 0.5t-14.5 2.5z" />
<glyph unicode="z" horiz-adv-x="365" d="M323 331l-205 -282h203v-49h-285v16l202 285h-183v49h268v-19z" />
<glyph unicode="{" horiz-adv-x="221" d="M190 -175q-119 0 -119 122v120q0 81 -62 87v43q30 3 46 22.5t16 61.5v117q0 64 28 94t91 33v-49q-30 -2 -46.5 -22.5t-16.5 -57.5v-120q0 -40 -15 -66.5t-50 -36.5q34 -8 49.5 -34.5t15.5 -68.5v-116q0 -43 13.5 -61.5t49.5 -18.5v-49z" />
<glyph unicode="|" horiz-adv-x="169" d="M54 524h56v-700h-56v700z" />
<glyph unicode="}" horiz-adv-x="221" d="M32 -126q35 0 48.5 18.5t13.5 61.5v116q0 42 15.5 68.5t49.5 34.5q-34 10 -49.5 36.5t-15.5 66.5v120q0 75 -62 80v49q61 -3 89.5 -33t28.5 -94v-117q0 -42 16 -61.5t46 -22.5v-43q-62 -6 -62 -87v-120q0 -122 -118 -122v49z" />
<glyph unicode="~" horiz-adv-x="389" d="M344 259q-4 -94 -85 -94q-20 0 -37 8t-32.5 18t-30.5 18t-30 8q-43 0 -43 -52h-41q0 42 22 68t62 26q19 0 35 -8.5t31.5 -18t31.5 -18t36 -8.5q16 0 27 14t12 39h42z" />
<glyph unicode="&#xe01;" horiz-adv-x="442" d="M393 56q0 -21 -14 -34.5t-28 -21.5h-14v308q0 21 -11.5 37t-30 26.5t-41 15.5t-43.5 5q-52 0 -83.5 -17.5t-42.5 -38.5l63 -56q-7 -10 -14 -30t-7 -54v-196h-56v196q0 34 7 54t14 30l-28 25q-10 9 -19 16t-9 8q5 16 17.5 35.5t33.5 36.5t51.5 28.5t71.5 11.5 q32 0 64.5 -8t59 -24.5t43 -41.5t16.5 -59v-252z" />
<glyph unicode="&#xe02;" horiz-adv-x="378" d="M34 434h56q19 0 37 -7.5t31.5 -21t21.5 -31.5t8 -38t-9.5 -40t-23.5 -33q-9 -8 -23 -28.5t-14 -52.5v-39q0 -17 3 -35t11.5 -32.5t23.5 -24t39 -9.5q22 0 37 9.5t24 24.5t12.5 32.5t3.5 34.5v291h56v-287q0 -29 -6 -56.5t-21 -49t-41 -35t-65 -13.5q-40 0 -65.5 13.5 t-40.5 35t-21 49t-6 56.5v35q0 36 11 58t24 37.5t24 28t11 30.5q0 17 -13 33t-29 16h-56v49z" />
<glyph unicode="&#xe03;" horiz-adv-x="380" d="M36 434l42 -14q20 17 40 17q13 0 26 -6.5t23 -18t16.5 -27.5t6.5 -35q0 -20 -9 -39.5t-24 -33.5q-9 -8 -23 -28.5t-14 -52.5v-53q0 -17 3 -35t11.5 -32.5t23.5 -24t39 -9.5q22 0 37 9.5t24 24.5t12.5 32.5t3.5 34.5v291h56v-287q0 -29 -6 -56.5t-21 -49t-41 -35 t-65 -13.5t-65 13.5t-41 35t-21 49t-6 56.5v49q0 36 11 58t24 37.5t24 28t11 30.5q0 10 -5.5 23.5t-19.5 13.5q-16 0 -31 -23l-42 21v49z" />
<glyph unicode="&#xe04;" horiz-adv-x="457" d="M106 165q10 12 23 25t28 23.5t32 17.5t36 7v-56q-20 0 -37 -7t-32 -18t-27.5 -24t-22.5 -25v-108h-56v308q0 34 15 59t39.5 41.5t56.5 24.5t67 8q34 0 66.5 -8t57.5 -24.5t40 -41.5t15 -59v-308h-56v308q0 21 -10.5 37t-27.5 26.5t-39 15.5t-46 5t-46 -5t-39 -15.5 t-27 -26.5t-10 -37v-143z" />
<glyph unicode="&#xe05;" horiz-adv-x="459" d="M50 308q0 26 9.5 50t26 42t38.5 29t46 11q15 0 31 -14t28 -26q11 13 28 26.5t31 13.5q25 0 46.5 -11t37.5 -29t25.5 -42t9.5 -50v-308h-56v308q0 32 -19.5 51.5t-47.5 19.5q-8 0 -17.5 -7t-17.5 -14l-20 -22l-20 22q-8 7 -18 14t-17 7q-26 0 -47 -19.5t-21 -51.5v-143 q11 12 23.5 25t27.5 23.5t32 17.5t36 7v-56q-19 0 -36 -7t-32.5 -18t-28 -24t-22.5 -25v-108h-56v308z" />
<glyph unicode="&#xe06;" horiz-adv-x="465" d="M414 434v-287q0 -35 -9 -63t-29.5 -48.5t-52.5 -31.5t-77 -11q-18 0 -37 4t-35.5 12t-29 20.5t-17.5 30.5v-60h-56v196q0 36 11 58t24 37.5t24 28t11 30.5q0 10 -5 23.5t-20 13.5q-14 0 -31 -23l-42 21v49l42 -14q20 17 41 17q27 0 49 -24.5t22 -62.5q0 -20 -9 -39.5 t-23 -33.5q-10 -6 -24 -28.5t-14 -52.5q0 -41 10 -70t27 -47.5t38 -27.5t44 -9q48 0 80 28t32 73v291h56z" />
<glyph unicode="&#xe07;" horiz-adv-x="366" d="M80 294l59 -245q27 0 52 13t44 35.5t30.5 53t11.5 66.5t-12 67t-31.5 53.5t-45 35t-51.5 12.5h-8v49h8q39 0 74.5 -16.5t62.5 -45.5t43 -69t16 -86q0 -48 -17 -88t-44.5 -68.5t-62.5 -44.5t-72 -16h-45l-68 294h56z" />
<glyph unicode="&#xe08;" horiz-adv-x="430" d="M145 0l-46 175q-1 7 -11 7h-28v42h42q21 0 33 -8t18 -23l37 -144q32 0 59.5 13.5t47 37t30.5 54t11 63.5q0 39 -12.5 71t-33 55t-46.5 36t-54 13q-27 0 -50.5 -10.5t-42.5 -26t-33 -34.5t-22 -36l-18 66q7 12 21 27.5t35 29.5t48.5 23.5t61.5 9.5q45 0 82.5 -19t64 -50.5 t41 -71.5t14.5 -83q0 -49 -17 -89t-45 -68.5t-64.5 -44t-76.5 -15.5h-46z" />
<glyph unicode="&#xe09;" horiz-adv-x="450" d="M72 165q0 8 -2 16t-12 8h-28v49h42q32 0 44 -19t12 -51v-25q0 -22 9 -40.5t23.5 -32t33.5 -21t39 -7.5q54 0 83 38.5t29 123.5v70q0 21 -7 42t-21.5 38t-37 27.5t-53.5 10.5q-32 0 -57 -9t-44 -22.5t-32.5 -29.5t-21.5 -29l-18 66q10 12 25.5 25t36.5 23.5t48.5 17.5 t62.5 7q39 0 71.5 -13.5t55.5 -36.5t35.5 -53t12.5 -64v-274h-56v60q-10 -35 -40 -51t-72 -16q-81 0 -121 42.5t-40 111.5v18z" />
<glyph unicode="&#xe0a;" horiz-adv-x="400" d="M108 129q0 -17 3.5 -32.5t13 -27.5t27.5 -19.5t47 -7.5q24 0 41 11.5t28 28.5t16.5 36.5t5.5 35.5q0 26 -5.5 50t-16 42.5t-26.5 29.5t-38 11v49q17 0 33.5 11.5t30.5 32t23 49t11 61.5h56q0 -52 -22 -100t-71 -81q19 -6 34 -21t25.5 -36t16 -46t5.5 -52 q0 -29 -6.5 -57.5t-23 -51.5t-45 -37.5t-72.5 -14.5q-45 0 -73.5 11t-45 30t-22.5 44.5t-6 54.5v49q0 36 11 58t24 37.5t24 28t11 30.5q0 17 -12.5 33t-29.5 16h-56v49h56q19 0 37 -7.5t31.5 -21t21.5 -31.5t8 -38t-9 -39.5t-24 -33.5q-9 -8 -23 -28.5t-14 -52.5v-53z" />
<glyph unicode="&#xe0b;" horiz-adv-x="403" d="M110 129q0 -17 3.5 -32.5t13 -27.5t27.5 -19.5t47 -7.5q24 0 41 11.5t28 28.5t16.5 36.5t5.5 35.5q0 26 -5.5 50t-16 42.5t-26.5 29.5t-37 11v49q17 0 33.5 11.5t30 32t22.5 49t11 61.5h56q0 -9 -2 -30.5t-11.5 -48t-28 -54t-51.5 -48.5q19 -6 34 -21t25.5 -36t16 -46.5 t5.5 -51.5q0 -29 -6.5 -57.5t-23 -51.5t-45 -37.5t-72.5 -14.5q-45 0 -73.5 11t-45 30t-22.5 44.5t-6 54.5v63q0 36 11 58t24 37.5t24 28t11 30.5q0 10 -5.5 23.5t-19.5 13.5q-16 0 -31 -23l-42 21v49l42 -14q20 17 41 17q12 0 25 -6.5t23 -18t16.5 -27.5t6.5 -35 q0 -20 -9 -39.5t-24 -33.5q-9 -8 -23 -28.5t-14 -52.5v-67z" />
<glyph unicode="&#xe0c;" horiz-adv-x="718" d="M666 434v-287q0 -35 -6.5 -63t-23 -48.5t-45 -31.5t-72.5 -11q-18 0 -37 4t-35.5 12t-29 21t-17.5 30v-60h-56v308q0 21 -12 37t-30.5 26.5t-40.5 15.5t-43 5q-54 0 -85 -17.5t-41 -38.5l63 -56q-8 -10 -14.5 -30t-6.5 -54v-123q0 -8 2 -16t12 -8h28v-49h-42 q-32 0 -44 19.5t-12 50.5v126q0 34 6.5 54t14.5 30l-28 25q-11 10 -20 16t-8 8q20 57 67.5 84.5t107.5 27.5q42 0 75.5 -11t57.5 -29.5t36.5 -42.5t12.5 -50v-98q0 -42 9.5 -73.5t26 -52.5t38 -31.5t45.5 -10.5q48 0 69.5 28t21.5 73v291h56z" />
<glyph unicode="&#xe0d;" horiz-adv-x="702" d="M328 308q0 21 -11.5 37t-30 26.5t-41 15.5t-43.5 5q-52 0 -83.5 -17.5t-42.5 -38.5l63 -56q-7 -10 -14 -30t-7 -54v-123q0 -8 2.5 -16t11.5 -8h28v-49h-42q-31 0 -43.5 19.5t-12.5 50.5v126q0 34 7 54t14 30l-28 25q-10 9 -19 16t-9 8q10 28 27.5 49t40.5 35t50.5 21 t56.5 7q42 0 76 -11t57.5 -29.5t36 -42.5t12.5 -50v-165q0 -45 21.5 -73t69.5 -28q24 0 45.5 10.5t38 31.5t26 52.5t9.5 73.5v224h56v-393q0 -42 -16.5 -73.5t-42 -52.5t-56.5 -31.5t-60 -10.5q-45 0 -78 11.5t-58 37.5l30 47q19 -21 46 -34t60 -13q24 0 45.5 8.5t38 25.5 t26 42t9.5 57v5q-5 -18 -17.5 -30.5t-29 -20.5t-35.5 -12t-37 -4q-44 0 -72.5 11t-45 31.5t-23 48.5t-6.5 63v161z" />
<glyph unicode="&#xe0e;" horiz-adv-x="451" d="M63 49q10 0 12.5 8t2.5 16v123q0 34 6.5 54t14.5 30l-28 25q-11 10 -20 16t-8 8q20 57 67.5 84.5t107.5 27.5q42 0 75.5 -11t57.5 -29.5t36.5 -42.5t12.5 -50v-427q-2 -14 -7.5 -30t-17.5 -29.5t-31.5 -22.5t-49.5 -9q-38 0 -66 16t-45 33q-19 -17 -52.5 -33t-87.5 -16 v49q55 0 88 18.5t52 37.5q23 -19 52 -37.5t60 -18.5q24 0 34 14.5t15 27.5v427q0 21 -12 37t-30.5 26.5t-40.5 15.5t-43 5q-54 0 -85 -17.5t-41 -38.5l63 -56q-8 -10 -14.5 -30t-6.5 -54v-126q0 -31 -19.5 -50.5t-51.5 -19.5h-28v49h28z" />
<glyph unicode="&#xe0f;" horiz-adv-x="452" d="M401 -119q-1 -14 -5.5 -30t-15.5 -29.5t-30 -22.5t-48 -9q-25 0 -46 15.5t-37 33.5l-35 -49l-38 49q-21 -18 -47 -33.5t-55 -15.5v49q32 0 57 18.5t45 37.5l38 -49l35 49q13 -19 35.5 -37.5t48.5 -18.5q12 0 20 4t12.5 10.5t6.5 14t3 13.5v427q0 21 -12 37t-30 26.5 t-40.5 15.5t-43.5 5q-52 0 -83.5 -17.5t-42.5 -38.5l63 -56q-8 -10 -14.5 -30t-6.5 -54v-126q0 -31 -19.5 -50.5t-51.5 -19.5h-28v49h28q10 0 12.5 8t2.5 16v123q0 34 6.5 54t14.5 30l-28 25q-10 9 -19 16t-9 8q20 57 67.5 84.5t107.5 27.5q42 0 75.5 -11t57.5 -29.5 t36.5 -42.5t12.5 -50v-427z" />
<glyph unicode="&#xe10;" horiz-adv-x="433" d="M140 0l-45 168q-3 7 -12 7h-28v49h42q21 0 33 -8t18 -23l38 -144q32 0 59 13.5t46.5 37t30.5 54t11 63.5q0 39 -12.5 71t-33 55t-46.5 36t-54 13q-27 0 -50.5 -10.5t-42.5 -26t-33 -34.5t-22 -36l-18 66q7 12 21 27.5t35 29.5t48.5 23.5t61.5 9.5q18 0 35 -3.5t34 -9.5 q9 3 21 7.5t23.5 12t19.5 18t8 24.5h56q0 -20 -8 -35t-20.5 -26t-27 -17.5t-26.5 -9.5q42 -32 64.5 -81t22.5 -104q0 -49 -17 -89t-45 -68.5t-64.5 -44t-76.5 -15.5h-46zM361 -70q4 -4 9 -15.5t5 -33.5q0 -15 -4.5 -31t-15 -29.5t-28.5 -22t-44 -8.5q-20 0 -38.5 16.5 t-30.5 32.5l-31 -49l-35 49q-21 -18 -48 -33.5t-61 -15.5v49q35 0 63 19t46 37l35 -49l31 49q5 -9 12.5 -19t17 -18t20 -13t20.5 -5q20 0 27.5 13t7.5 28q0 22 -5 33.5t-9 15.5h56z" />
<glyph unicode="&#xe11;" horiz-adv-x="470" d="M363 0v276q0 67 -16 91.5t-47 24.5q-21 0 -49.5 -22.5t-55 -55.5t-45 -71.5t-18.5 -69.5v-173h-56v153q0 76 52 156q5 9 9 21t4 20q0 10 -5.5 23.5t-19.5 13.5q-16 0 -31 -23l-42 21v49l42 -14q20 17 40 17q18 0 33 -10.5t26 -28.5l5 -11q25 25 53 39.5t58 14.5 q36 0 59 -11.5t36.5 -33t18.5 -53t5 -70.5v-273h-56z" />
<glyph unicode="&#xe12;" horiz-adv-x="728" d="M676 434v-287q0 -35 -6.5 -63t-23 -48.5t-45 -31.5t-73.5 -11q-17 0 -36 4t-36 12t-29.5 20.5t-16.5 30.5v-60h-56v308q0 16 -5 31t-13.5 27t-20.5 19.5t-25 7.5q-8 0 -18.5 -7t-16.5 -14l-20 -22l-21 22q-7 7 -17 14t-18 7q-11 0 -24.5 -8.5t-25 -28t-19.5 -52t-8 -80.5 q0 -34 9 -67.5t26.5 -60.5t42 -44t55.5 -17q16 0 26 3t15 7v-46q-7 -3 -16 -4.5t-25 -1.5q-45 0 -80 20t-59.5 52.5t-37 74t-12.5 84.5q0 59 11 100t29 67t41.5 37.5t48.5 11.5q14 0 30 -13.5t29 -26.5q4 6 11 13t15.5 13t17 10t14.5 4q25 0 46.5 -11t37 -29t24.5 -42t9 -50 v-98q0 -42 9.5 -73.5t26 -52.5t38 -31.5t44.5 -10.5q48 0 70 28t22 73v291h56z" />
<glyph unicode="&#xe13;" horiz-adv-x="720" d="M134 73q0 -8 2 -16t12 -8h28v-49h-42q-32 0 -44 19.5t-12 50.5v126q0 34 6.5 54t14.5 30l-28 25q-11 10 -20 16t-8 8q20 57 67.5 84.5t107.5 27.5q42 0 75.5 -11t57.5 -29.5t36.5 -42.5t12.5 -50v-165q0 -45 21.5 -73t69.5 -28q23 0 44.5 10.5t38 31.5t26.5 52.5t10 73.5 v224h56v-434h-56v60q-6 -17 -18.5 -30t-28.5 -21t-35 -12t-37 -4q-45 0 -73.5 11t-45 31.5t-22.5 48.5t-6 63v161q0 21 -12 37t-30.5 26.5t-40.5 15.5t-43 5q-54 0 -85 -17.5t-41 -38.5l63 -56q-8 -10 -14.5 -30t-6.5 -54v-123z" />
<glyph unicode="&#xe14;" horiz-adv-x="452" d="M268 -1q-8 -3 -17 -4.5t-25 -1.5q-37 0 -71 16.5t-60.5 46.5t-42 72.5t-15.5 95.5q0 57 17 98t44 67.5t61 39t67 12.5q34 0 65.5 -8t56 -24.5t39 -41.5t14.5 -59v-308h-56v308q0 21 -9.5 37t-26 26.5t-38 15.5t-45.5 5q-23 0 -47 -9.5t-43 -30t-31 -52.5t-12 -76 q0 -35 9 -67.5t26.5 -58t42 -41t55.5 -15.5q16 0 26 3t16 7v-53z" />
<glyph unicode="&#xe15;" horiz-adv-x="456" d="M271 -1q-8 -3 -17 -4.5t-25 -1.5q-45 0 -80 20t-59 52.5t-37 74t-13 84.5q0 59 11 100t29.5 67t42 37.5t47.5 11.5q15 0 31 -14t28 -26q11 13 28 26.5t31 13.5q24 0 45.5 -11t37 -29t24.5 -42t9 -50v-308h-56v308q0 32 -18.5 55t-45.5 23q-8 0 -17.5 -7t-17.5 -14 l-20 -22l-20 22q-8 7 -18 14t-17 7q-11 0 -24.5 -7t-25.5 -25.5t-20 -50t-8 -79.5q0 -35 9.5 -67.5t27 -58t42 -41t54.5 -15.5q16 0 26 3t16 7v-53z" />
<glyph unicode="&#xe16;" horiz-adv-x="442" d="M71 196q0 34 6.5 54t14.5 30l-28 25q-11 9 -19.5 15.5t-8.5 8.5q20 57 67.5 84.5t107.5 27.5q42 0 75.5 -11t57.5 -29.5t36.5 -42.5t12.5 -50v-252q0 -20 -14.5 -34t-27.5 -22h-14v308q0 21 -12 37t-30.5 26.5t-40.5 15.5t-43 5q-54 0 -85 -17.5t-41 -38.5l63 -56 q-8 -10 -14.5 -30t-6.5 -54v-123q0 -8 2 -16t12 -8h28v-49h-42q-32 0 -44 19.5t-12 50.5v126z" />
<glyph unicode="&#xe17;" horiz-adv-x="447" d="M341 0v290q0 22 -9 41t-24 32.5t-35.5 21t-43.5 7.5q-24 0 -45.5 -10.5t-38 -31.5t-26 -52.5t-9.5 -73.5v-224h-56v434h56v-59q5 17 17.5 29.5t29 20.5t35.5 12t37 4q89 0 128.5 -42.5t39.5 -111.5v-287h-56z" />
<glyph unicode="&#xe18;" horiz-adv-x="433" d="M376 340q-9 4 -27.5 12.5t-42 17.5t-50.5 15.5t-54 6.5q-60 0 -82.5 -13.5t-22.5 -41.5q0 -30 22 -41t54.5 -15t70.5 -6t70.5 -14t54.5 -39.5t22 -81.5q0 -29 -10 -55.5t-29 -47t-46.5 -32.5t-61.5 -12h-56q-34 0 -59 12t-41.5 32.5t-24.5 47.5t-8 56v63h56v-67 q0 -17 5.5 -34t16.5 -30.5t28.5 -22t40.5 -8.5h28q22 0 41.5 8t33.5 21t22 29t8 32q0 46 -22 66t-54.5 27t-70.5 8t-70.5 8.5t-54.5 28t-22 67.5q0 104 161 104q39 0 70 -4.5t53.5 -10t35 -10.5t15.5 -7v-69z" />
<glyph unicode="&#xe19;" horiz-adv-x="447" d="M106 434v-291q0 -45 32 -73t80 -28q23 0 44.5 10.5t38 31.5t26.5 52.5t10 73.5v224h56v-434h-56v60q-6 -17 -18.5 -30t-28.5 -21t-35 -12t-37 -4q-90 0 -129 42.5t-39 111.5v287h56z" />
<glyph unicode="&#xe1a;" horiz-adv-x="436" d="M183 -7q-34 0 -59 13.5t-41.5 35t-24.5 49t-8 56.5v287h56v-291q0 -17 5 -35t16.5 -32.5t28.5 -24t41 -9.5h42q23 0 40 9.5t28.5 24t17 32.5t5.5 35v291h56v-287q0 -29 -8 -56.5t-24.5 -49t-41.5 -35t-59 -13.5h-70z" />
<glyph unicode="&#xe1b;" horiz-adv-x="412" d="M81 434v-291q0 -17 5 -35t16 -32.5t28.5 -24t41.5 -9.5h42q23 0 40 9.5t28.5 24t17 32.5t5.5 35v417h56v-413q0 -29 -8 -56.5t-24.5 -49t-41.5 -35t-59 -13.5h-70q-35 0 -60 13.5t-41 35t-24 49t-8 56.5v287h56z" />
<glyph unicode="&#xe1c;" horiz-adv-x="511" d="M470 434q-5 -83 -14 -149.5t-21 -119.5t-25.5 -93.5t-26.5 -71.5h-37l-95 238l-94 -238h-37q-26 64 -49 145t-27 184q0 16 2 34t9 34t20 26.5t34 10.5h42v-49h-28q-8 0 -12.5 -7t-6.5 -16t-2.5 -18.5t-0.5 -15.5q0 -72 14 -125.5t30 -90.5l88 203h36l86 -203 q8 15 17 39.5t17 62t14.5 91.5t10.5 129h56z" />
<glyph unicode="&#xe1d;" horiz-adv-x="493" d="M451 560q0 -108 -8.5 -193.5t-21.5 -153t-29.5 -120t-32.5 -93.5h-37l-94 238l-95 -238h-37q-26 64 -49 145t-27 184q0 16 2.5 34t9.5 34t19.5 26.5t33.5 10.5h42v-49h-28q-8 0 -12.5 -7t-6.5 -16t-2.5 -18.5t-0.5 -15.5q0 -72 14 -125.5t30 -90.5l88 203h37l85 -203 q10 18 21 50.5t20 85t15 129t6 183.5h58z" />
<glyph unicode="&#xe1e;" horiz-adv-x="583" d="M160 0l-127 434h57l91 -311l92 311h36l91 -311l92 311h57l-126 -434h-37l-95 324l-94 -324h-37z" />
<glyph unicode="&#xe1f;" horiz-adv-x="598" d="M141 0l-126 434h57l91 -311l92 311h36l91 -311l129 437h57l-163 -560h-37l-95 324l-94 -324h-38z" />
<glyph unicode="&#xe20;" horiz-adv-x="450" d="M79 196q0 34 6.5 54t14.5 30l-28 25q-10 9 -19 16t-9 8q20 57 67.5 84.5t107.5 27.5q42 0 75.5 -11t57.5 -29.5t36.5 -42.5t12.5 -50v-252q0 -20 -14 -34t-28 -22h-14v308q0 21 -12 37t-30 26.5t-40.5 15.5t-43.5 5q-52 0 -83.5 -17.5t-42.5 -38.5l63 -56 q-8 -10 -14.5 -30t-6.5 -54v-126q0 -31 -19.5 -50.5t-51.5 -19.5h-28v49h28q10 0 12.5 8t2.5 16v123z" />
<glyph unicode="&#xe21;" horiz-adv-x="447" d="M397 434v-287q0 -69 -39.5 -111.5t-128.5 -42.5q-18 0 -37 4t-35.5 12t-29 21t-17.5 30v-60h-56v434h56v-224q0 -42 9.5 -73.5t26 -52.5t38 -31.5t45.5 -10.5t44.5 7.5t35.5 20.5t23.5 31.5t8.5 41.5v291h56z" />
<glyph unicode="&#xe22;" horiz-adv-x="426" d="M40 147q0 38 21.5 62.5t59.5 36.5q-31 14 -49 36.5t-18 53.5q0 28 10 47.5t26 32t35.5 18.5t39.5 7q16 0 25.5 -1.5t15.5 -3.5l9 -5v-56l-11 5q-15 5 -38 5q-24 0 -40 -14.5t-16 -34.5q0 -32 32.5 -47.5t80.5 -15.5v-49q-32 0 -56 -7t-39.5 -18t-23.5 -25t-8 -27 q0 -18 5.5 -37t19 -34t34.5 -24.5t53 -9.5q31 0 52.5 9.5t35 24t19 32.5t5.5 35v291h56v-287q0 -29 -8.5 -56.5t-28.5 -49t-52 -35t-79 -13.5t-79.5 13.5t-52 35t-28 49t-8.5 56.5z" />
<glyph unicode="&#xe23;" horiz-adv-x="362" d="M297 338q-8 18 -33 36t-80 18q-32 0 -58 -14t-26 -42t16 -42.5t39.5 -23t52 -15.5t53 -21t42.5 -39t21 -69q0 -26 -6.5 -50t-23.5 -42.5t-47 -29.5t-77 -11q-61 0 -89.5 10.5t-36.5 18.5v65q12 -16 42 -30.5t84 -14.5q98 0 98 84q0 32 -16.5 48t-41.5 25.5t-54 16 t-54 19.5t-41.5 36t-16.5 65q0 26 12 46t32 33t45 19.5t51 6.5q52 0 76.5 -11t36.5 -21v-71z" />
<glyph unicode="&#xe24;" horiz-adv-x="419" d="M102 73q0 -8 2 -16t12 -8h27v-49h-41q-32 0 -44 19.5t-12 50.5v126q0 34 6.5 54t13.5 30l-27 25q-11 10 -20 16t-8 8q9 28 26.5 49t40.5 35t50.5 21t57.5 7q42 0 75.5 -11t57 -29.5t36.5 -42.5t13 -50v-462q0 -19 -14 -34.5t-28 -21.5h-14v518q0 21 -12 37t-30.5 26.5 t-40.5 15.5t-43 5q-54 0 -85 -17.5t-41 -38.5l63 -56q-8 -10 -14.5 -30t-6.5 -54v-123z" />
<glyph unicode="&#xe25;" horiz-adv-x="426" d="M50 369q11 13 25.5 26t33 23t41.5 16.5t52 6.5q33 0 64 -10.5t56 -31.5t40 -52t15 -73v-274h-56v204q-4 -5 -25.5 -10t-72.5 -5q-10 0 -30 -3.5t-39.5 -12t-34.5 -23.5t-15 -38q0 -42 26.5 -56t78.5 -14q29 0 42 7v-49q-7 -3 -18.5 -5t-30.5 -2q-82 0 -118 28t-36 91 q0 39 18 63.5t44 38.5t55 19.5t52 5.5q6 0 14 -0.5t16 -0.5q13 0 26.5 1t24 5t17 11t6.5 19q0 22 -8.5 43.5t-24 38t-37.5 26.5t-49 10q-24 0 -44.5 -8t-38 -20.5t-31 -28t-22.5 -30.5z" />
<glyph unicode="&#xe26;" horiz-adv-x="427" d="M375 -154q0 -20 -14 -35t-28 -21h-14v518q0 21 -12 37t-30 26.5t-40.5 15.5t-43.5 5q-52 0 -83.5 -17.5t-42.5 -38.5l63 -56q-7 -10 -14 -30t-7 -54v-126q0 -31 -19.5 -50.5t-50.5 -19.5h-28v49h28q9 0 11.5 8t2.5 16v123q0 34 6.5 54t14.5 30l-28 25q-10 9 -19 16t-9 8 q10 28 27.5 49t40.5 35t50.5 21t56.5 7q42 0 75.5 -11t57.5 -29.5t36.5 -42.5t12.5 -50v-462z" />
<glyph unicode="&#xe27;" horiz-adv-x="435" d="M73 104q5 -7 16 -17.5t27.5 -20.5t37 -17t43.5 -7q30 0 57 14t46.5 38t31 55.5t11.5 67.5t-11.5 67.5t-31 55.5t-46.5 38t-57 14q-28 0 -51 -10.5t-41 -26t-31 -33t-21 -31.5l-18 66q28 45 70.5 64.5t91.5 19.5q43 0 80 -18t64 -48.5t42.5 -71t15.5 -86.5q0 -48 -16 -89 t-43.5 -71t-64.5 -47t-78 -17q-34 0 -74.5 13t-65.5 42z" />
<glyph unicode="&#xe28;" horiz-adv-x="456" d="M95 165q11 12 23.5 25t27.5 23.5t32 17.5t36 7v-56q-20 0 -37 -7t-32 -18t-27.5 -24t-22.5 -25v-108h-56v308q0 34 15 59t40 41.5t57 24.5t67 8q37 0 71 -10q10 3 21 8t20.5 12.5t15.5 17t6 21.5h56q0 -17 -6 -30.5t-15.5 -23.5t-21 -17t-23.5 -12q25 -16 39.5 -40.5 t14.5 -58.5v-308h-56v308q0 21 -10 37t-27 26.5t-39 15.5t-46 5t-46 -5t-39 -15.5t-27.5 -26.5t-10.5 -37v-143z" />
<glyph unicode="&#xe29;" horiz-adv-x="461" d="M239 259h91v175h56v-175h42v-49h-42v-63q0 -29 -8 -56.5t-24.5 -49t-41.5 -35t-59 -13.5h-70q-34 0 -59 13.5t-41.5 35t-24.5 49t-8 56.5v287h56v-291q0 -17 5.5 -35t16.5 -32.5t28.5 -24t40.5 -9.5h42q24 0 41 9.5t28.5 24t16.5 32.5t5 35v67h-91v49z" />
<glyph unicode="&#xe2a;" horiz-adv-x="424" d="M48 379q22 23 56.5 42.5t86.5 19.5q32 0 65 -11q9 3 20.5 7.5t21.5 12t16.5 17t6.5 23.5h56q0 -19 -7 -33t-17.5 -24.5t-23.5 -17t-25 -10.5q28 -21 45 -53.5t17 -77.5v-274h-56v204q-5 -5 -25.5 -10t-72.5 -5q-10 0 -30 -3.5t-39.5 -12t-34.5 -23.5t-15 -38 q0 -21 8 -34.5t22.5 -21.5t33.5 -11t41 -3q29 0 42 7v-49q-7 -3 -18.5 -5t-30.5 -2q-74 0 -114 28t-40 91q0 39 18 63.5t44 38.5t55 19.5t52 5.5q6 0 14 -0.5t16 -0.5q13 0 26.5 1t24 5t17 11t6.5 19q0 22 -8.5 43.5t-24 38t-37.5 26.5t-49 10q-22 0 -41 -6.5t-35 -17 t-29 -24t-23 -27.5z" />
<glyph unicode="&#xe2b;" horiz-adv-x="424" d="M379 434l-132 -132q25 -7 48 -20.5t41 -34t29 -47t11 -60.5v-140h-56v126q0 31 -9.5 55t-25 40.5t-36.5 26t-45 11.5l-94 -95v-164h-56v434h56v-190l190 190h79z" />
<glyph unicode="&#xe2c;" horiz-adv-x="597" d="M142 0l-127 434h58l91 -311l92 311h36l91 -311l67 227q2 7 3 14.5t1 10.5q0 16 -8 29.5t-20.5 24t-27 19t-27.5 14.5q22 7 46.5 17t45.5 22.5t35 27t14 31.5h57q0 -22 -11.5 -38t-29.5 -28t-39 -19.5t-40 -12.5q23 -11 42 -36t19 -54q0 -2 -0.5 -9.5t-1.5 -12.5 l-103 -350h-37l-94 324l-95 -324h-37z" />
<glyph unicode="&#xe2d;" horiz-adv-x="464" d="M34 294q9 34 28 61t44.5 46t56 29.5t62.5 10.5q50 0 88 -20.5t63.5 -53t38.5 -72.5t13 -78q0 -51 -17 -92.5t-45.5 -70.5t-65 -45t-75.5 -16q-38 0 -71.5 13t-59 35.5t-40.5 52t-15 61.5q0 11 3 22t10.5 19.5t20.5 14t33 5.5h77v-47h-70q-14 0 -17.5 -3.5t-3.5 -10.5 q0 -17 10.5 -36.5t28.5 -36.5t42 -28.5t52 -11.5t54.5 12.5t47 35.5t33 55.5t12.5 71.5t-12 71t-32.5 55t-47 36t-55.5 13q-27 0 -49 -10t-39 -25t-28 -32t-16 -31h-59z" />
<glyph unicode="&#xe2e;" horiz-adv-x="456" d="M22 294q10 34 28.5 61t44 46t56 29.5t63.5 10.5q18 0 35.5 -3.5t32.5 -9.5q9 3 21.5 7.5t23.5 12t19 18t8 24.5h56q0 -20 -8 -35t-20 -25.5t-26 -17t-27 -9.5q45 -34 66 -85.5t21 -100.5q0 -51 -17 -92.5t-45.5 -70.5t-65 -45t-74.5 -16t-71.5 13t-59.5 35.5t-41 52 t-15 61.5q0 22 13.5 38t53.5 16h77v-40h-70q-13 0 -17 -3.5t-4 -10.5q0 -17 10.5 -36.5t28.5 -36.5t42.5 -28.5t52.5 -11.5q27 0 53 12.5t47 35.5t33.5 55.5t12.5 71.5t-12 71t-32.5 55t-47 36t-54.5 13q-27 0 -49.5 -10t-39.5 -25t-28 -32t-16 -31h-59z" />
<glyph unicode="&#xe2f;" horiz-adv-x="388" d="M62 434q11 -42 33.5 -67t64.5 -25t72 23.5t42 68.5h61v-283q0 -36 -3.5 -64t-13 -47.5t-27.5 -29.5t-47 -10h-7v49h7q8 0 14.5 2.5t11 13t7 31.5t2.5 58v210q-6 -11 -16 -23.5t-24.5 -23t-34 -17.5t-44.5 -7q-63 0 -103 37.5t-51 103.5h56z" />
<glyph unicode="&#xe30;" horiz-adv-x="242" d="M218 280h-86q-42 0 -63 19.5t-21 50.5v42h56v-38q0 -14 8 -19.5t34 -5.5h84zM218 56h-86q-42 0 -63 19.5t-21 50.5v42h56v-39q0 -13 8 -18.5t34 -5.5h84z" />
<glyph unicode="&#xe31;" d="M-13 525h-148q-42 0 -63 19t-21 51v42h56v-39q0 -13 7.5 -18.5t34.5 -5.5h147z" />
<glyph unicode="&#xe32;" horiz-adv-x="363" d="M4 409q36 22 71 27t65 5q29 0 60 -9.5t56.5 -29t42 -50t16.5 -72.5v-280h-56v266q0 31 -9.5 54.5t-26 39.5t-38 24t-45.5 8q-51 0 -84.5 -16.5t-51.5 -37.5v71z" />
<glyph unicode="&#xe33;" horiz-adv-x="363" d="M4 409q36 22 71 27t65 5q29 0 60 -9.5t56.5 -29t42 -50t16.5 -72.5v-280h-56v266q0 31 -9.5 54.5t-26 39.5t-38 24t-45.5 8q-51 0 -84.5 -16.5t-51.5 -37.5v71zM-157 589q0 16 6.5 30.5t17 25.5t25 17.5t30.5 6.5t30 -6.5t25 -17.5t17.5 -25.5t6.5 -30.5q0 -32 -23.5 -55 t-55.5 -23q-16 0 -30.5 6.5t-25 17t-17 24.5t-6.5 30zM-110 589q0 -13 9 -22t23 -9t23 9t9 22q0 14 -9 23.5t-23 9.5t-23 -9.5t-9 -23.5z" />
<glyph unicode="&#xe34;" d="M-315 574h265v-49h-280z" />
<glyph unicode="&#xe35;" d="M-315 574h209v63h56v-112h-280z" />
<glyph unicode="&#xe36;" d="M-306 574h155q-1 2 -1 6q0 1 -1 2q0 30 16.5 49.5t46.5 19.5q27 0 45 -18t18 -45t-18 -45t-45 -18h-231zM-111 588q0 -9 6 -15t15 -6t15 6t6 15t-6 15t-15 6t-15 -6t-6 -15z" />
<glyph unicode="&#xe37;" d="M-315 574h125v63h56v-63h28v63h56v-112h-280z" />
<glyph unicode="&#xe38;" d="M-106 -224v66q0 9 -2 17t-12 8h-28v49h42q32 0 44 -19.5t12 -50.5v-70h-56z" />
<glyph unicode="&#xe39;" d="M-232 -158q0 9 -2 17t-12 8h-28v49h42q20 0 30 -7.5t15 -18t6.5 -23.5t5 -23.5t11 -18t23.5 -7.5t25.5 6t9.5 22v70h56v-74q0 -14 -3.5 -27.5t-13 -23.5t-27.5 -16t-47 -6t-46.5 6t-27.5 16t-13.5 23.5t-3.5 27.5z" />
<glyph unicode="&#xe3a;" d="M-106 -84h56v-56h-56v56z" />
<glyph unicode="&#xe3f;" horiz-adv-x="364" d="M344 139q0 -60 -40.5 -97.5t-109.5 -41.5v-84h-56v84h-95v490h95v84h56v-85q60 -4 92.5 -36t32.5 -78q0 -39 -23.5 -71.5t-63.5 -44.5q49 -8 80.5 -38.5t31.5 -81.5zM99 230v-181h76q51 0 81 26t30 64q0 91 -122 91h-65zM99 441v-165h59q46 0 74 24.5t28 64.5 q0 35 -24 55.5t-72 20.5h-65z" />
<glyph unicode="&#xe40;" horiz-adv-x="165" d="M109 434v-368q0 -8 2 -16t12 -8h28v-42h-42q-32 0 -44 19.5t-12 50.5v364h56z" />
<glyph unicode="&#xe41;" horiz-adv-x="356" d="M109 434v-368q0 -8 2 -16t12 -8h28v-42h-42q-31 0 -43.5 19.5t-12.5 50.5v364h56zM277 434v-368q0 -8 2 -16t12 -8h28v-42h-42q-31 0 -43.5 19.5t-12.5 50.5v364h56z" />
<glyph unicode="&#xe42;" horiz-adv-x="149" d="M273 602h-101q-26 0 -45 -0.5t-31 -4.5t-17.5 -12.5t-5.5 -24.5q0 -13 4.5 -27t10 -31.5t10 -40.5t4.5 -55v-340q0 -8 2 -16t12 -8h27v-42h-41q-32 0 -44 19.5t-12 50.5v336q0 32 -4.5 55t-10 41t-10 32.5t-4.5 28.5q0 45 33 66.5t108 21.5h115v-49z" />
<glyph unicode="&#xe43;" horiz-adv-x="163" d="M-124 601q6 8 15.5 17t23.5 16.5t33 12t44 4.5q36 0 62.5 -11t44 -28t25.5 -39.5t8 -44.5q0 -14 -4.5 -28.5t-9.5 -32.5t-9.5 -41t-4.5 -55v-305q0 -8 2 -16t12 -8h28v-42h-42q-32 0 -44 19.5t-12 50.5v301q0 32 4.5 55t9.5 40.5t9.5 31.5t4.5 27q0 31 -23 54t-75 23 q-15 0 -28 -6.5t-24 -16t-19 -20.5t-13 -21z" />
<glyph unicode="&#xe44;" horiz-adv-x="172" d="M-130 602v49h7q23 0 42 -12t31 -24q7 12 23.5 24t42.5 12q54 0 76 -35.5t22 -101.5v-448q0 -8 2 -16t12 -8h28v-42h-42q-31 0 -43.5 19.5t-12.5 50.5v444q0 17 -1 33t-5.5 28t-13 19.5t-24.5 7.5q-8 0 -16.5 -5t-16 -12.5t-14 -16t-10.5 -15.5q-7 7 -16.5 15.5t-20 16 t-22 12.5t-21.5 5h-7z" />
<glyph unicode="&#xe45;" horiz-adv-x="365" d="M3 409q36 22 71 30.5t65 8.5q29 0 60 -10.5t56.5 -31.5t42 -52.5t16.5 -73.5v-434q0 -20 -14 -35t-28 -21h-14v476q0 31 -9.5 56t-26 42t-38 26t-45.5 9q-51 0 -84.5 -19.5t-51.5 -41.5v71z" />
<glyph unicode="&#xe46;" horiz-adv-x="392" d="M342 -154q0 -20 -14 -35t-28 -21h-14v522q0 16 -1 32t-5 28t-13 19.5t-25 7.5t-34 -16.5t-30 -32.5q-6 6 -13 14.5t-15 16t-17.5 13t-19.5 5.5q-14 0 -22 -6t-12.5 -15.5t-6.5 -22.5t-3 -27v-6q5 -63 42 -97l-14 -53q-35 20 -59.5 55.5t-24.5 87.5q0 64 23 98.5t75 34.5 q26 0 42 -12t25 -24q8 12 24 24t42 12q54 0 76 -35t22 -101v-466z" />
<glyph unicode="&#xe47;" d="M-102 575v-9q0 -26 -14 -37t-35 -11q-16 0 -27 4t-18 9.5t-10 10t-4 5.5q-4 -10 -16 -19.5t-37 -9.5q-10 0 -24 3t-26.5 11t-21.5 21t-9 34q0 26 12.5 41.5t30 23.5t36 10t30.5 2q59 0 95 11t59 24v-48q-18 -10 -50 -19t-93 -9q-40 0 -53.5 -11t-13.5 -25q0 -10 8.5 -19 t19.5 -9q21 0 30.5 8.5t13.5 16.5h19q3 -9 11 -17t25 -8q6 0 8 1.5t2 7.5v7h52z" />
<glyph unicode="&#xe48;" d="M-50 637v-112h-56v112h56z" />
<glyph unicode="&#xe49;" d="M-13 525h-155q-21 0 -32 0.5t-16.5 4t-6.5 11.5t-1 22v4q-1 8 -3.5 14.5t-10.5 6.5h-34v49h48q23 0 33 -10t15 -21.5t8.5 -21.5t13.5 -10h154z" />
<glyph unicode="&#xe4a;" d="M-224 623q4 4 15.5 9t33.5 5q23 0 33 -10t15 -21.5t8.5 -21.5t13.5 -10h105l-13 -49h-106q-33 0 -43.5 11t-12.5 24t-2 24t-12 11q-8 0 -14.5 -9t-6.5 -19h-28q0 10 -5 19t-13 9q-9 0 -11.5 -7.5t-2.5 -17.5q0 -19 6 -30.5t12 -14.5h-56q-8 8 -13 20t-5 39q0 19 13 36 t43 17q19 0 30.5 -5t15.5 -9z" />
<glyph unicode="&#xe4b;" d="M-50 637v-31h56v-50h-56v-31h-56v31h-56v50h56v31h56z" />
<glyph unicode="&#xe4c;" d="M-106 525v21q0 36 21 63.5t63 27.5h63l-12 -49h-37q-21 0 -31.5 -13.5t-10.5 -32.5v-17h-56z" />
<glyph unicode="&#xe4d;" d="M-157 589q0 16 6.5 30.5t17 25.5t25 17.5t30.5 6.5t30 -6.5t25 -17.5t17.5 -25.5t6.5 -30.5q0 -32 -23.5 -55t-55.5 -23q-16 0 -30.5 6.5t-25 17t-17 24.5t-6.5 30zM-110 589q0 -13 9 -22t23 -9t23 9t9 22q0 14 -9 23.5t-23 9.5t-23 -9.5t-9 -23.5z" />
<glyph unicode="&#xe4e;" d="M-106 525q-11 17 -11 38q0 34 24 54t59 20q0 32 23.5 47.5t74.5 15.5v-35q-14 0 -26.5 -1t-21.5 -7.5t-14.5 -21t-5.5 -40.5q-20 0 -38.5 -8t-18.5 -30q0 -15 11 -32h-56z" />
<glyph unicode="&#xe4f;" horiz-adv-x="452" d="M226 266q39 0 65 -26t26 -65q0 -38 -26 -64.5t-65 -26.5q-38 0 -64.5 26.5t-26.5 64.5q0 39 26.5 65t64.5 26zM226 364q40 0 74.5 -15t60 -40.5t40 -60t14.5 -73.5t-14.5 -73.5t-40 -60t-60 -40.5t-74.5 -15q-39 0 -73.5 15t-60 40.5t-40.5 60t-15 73.5t15 73.5t40.5 60 t60 40.5t73.5 15zM226 308q-27 0 -51.5 -10.5t-42.5 -28.5t-28.5 -42t-10.5 -52q0 -27 10.5 -51.5t28.5 -42.5t42.5 -28.5t51.5 -10.5q28 0 52 10.5t42 28.5t28.5 42.5t10.5 51.5q0 28 -10.5 52t-28.5 42t-42 28.5t-52 10.5z" />
<glyph unicode="&#xe50;" horiz-adv-x="452" d="M226 357q40 0 74.5 -13.5t60 -38t40 -58t14.5 -72.5t-14.5 -72.5t-40 -58t-60 -38t-74.5 -13.5q-39 0 -73.5 13.5t-60 38t-40.5 58t-15 72.5t15 72.5t40.5 58t60 38t73.5 13.5zM226 308q-27 0 -51.5 -10.5t-42.5 -28.5t-28.5 -42t-10.5 -52q0 -27 10.5 -51.5t28.5 -42.5 t42.5 -28.5t51.5 -10.5q28 0 52 10.5t42 28.5t28.5 42.5t10.5 51.5q0 28 -10.5 52t-28.5 42t-42 28.5t-52 10.5z" />
<glyph unicode="&#xe51;" horiz-adv-x="440" d="M210 14h4q28 0 52 12.5t42 34t28.5 51t10.5 63.5q0 28 -10.5 52t-28.5 42t-42 28.5t-52 10.5q-36 0 -61.5 -11.5t-41 -28.5t-23 -36.5t-7.5 -35.5q0 -35 12.5 -59.5t45.5 -24.5q16 0 29 10t13 27v19h56v-21q0 -14 -5.5 -28.5t-17.5 -27t-30.5 -20.5t-44.5 -8 q-21 0 -41.5 8.5t-36.5 25t-26 41.5t-10 58q0 32 14 61.5t39.5 51.5t60 35t75.5 13q40 0 74.5 -13.5t60 -38t40 -58t14.5 -72.5q0 -45 -14.5 -83t-40 -66.5t-60 -44.5t-74.5 -16h-8.5t-9.5 1z" />
<glyph unicode="&#xe52;" horiz-adv-x="503" d="M182 -7q-22 0 -44.5 7t-40.5 22.5t-29.5 41t-11.5 62.5v301q0 15 -3.5 30t-12.5 27t-25.5 19.5t-42.5 7.5v49h14q36 0 60.5 -13t39 -33t20.5 -44t6 -46v-301q0 -26 8.5 -41.5t21.5 -24.5t27.5 -12t26.5 -3h131q13 0 27.5 3t27 12t21 24.5t8.5 41.5v101q0 13 -3 28t-9 28 t-16.5 21t-25.5 8q-11 0 -19 -5t-13.5 -11t-9 -12t-4.5 -8q0 2 -3 8t-9 12t-14.5 11t-18.5 5q-21 0 -31.5 -13.5t-10.5 -29.5q0 -23 8 -36.5t20 -21t25.5 -10t24.5 -3.5v-47q-16 2 -39 6.5t-44 16.5t-36 34.5t-15 60.5q0 13 4 29t14 29.5t25.5 23t39.5 9.5q35 0 60 -25 q7 7 16 12q8 5 19 9t25 4q27 0 45.5 -12t29.5 -31t16 -42.5t5 -47.5v-98q0 -37 -11 -62.5t-28.5 -41t-40 -22.5t-46.5 -7h-159z" />
<glyph unicode="&#xe53;" horiz-adv-x="564" d="M382 309q-15 0 -29.5 -10t-27.5 -25.5t-24 -34.5t-19 -36q-8 17 -19.5 36t-24.5 34.5t-27.5 25.5t-29.5 10t-30 -6t-26 -21t-18 -39.5t-7 -60.5q0 -28 6.5 -53.5t19 -45t31.5 -31t43 -11.5q18 0 26 5l9 4v-52q-6 -2 -13.5 -3.5t-21.5 -1.5q-31 0 -59 13.5t-49.5 38 t-34.5 59.5t-13 78q0 46 10.5 79.5t28.5 54.5t43 31t55 10q22 0 38 -7t28 -18t20.5 -24t14.5 -25q7 12 16 25t21 24t27.5 18t35.5 7q28 0 53 -10t43.5 -31t29 -54.5t10.5 -79.5q0 -69 -16.5 -113.5t-32.5 -68.5h-56q16 24 32.5 68.5t16.5 113.5q0 57 -20.5 92t-59.5 35z" />
<glyph unicode="&#xe54;" horiz-adv-x="506" d="M151 301q-21 0 -37 -11t-26.5 -28.5t-16 -40t-5.5 -46.5t5.5 -46.5t16 -40t26.5 -28.5t37 -11h170q-15 8 -31.5 21t-30 31.5t-22.5 42t-9 52.5h62q0 -32 14 -58.5t34.5 -46.5t44 -31t41.5 -11h35v-49h-308q-35 0 -61 14.5t-43.5 39t-26.5 56t-9 65.5t9 65.5t26.5 56 t43.5 39t61 14.5h168q15 0 30 4t27 14.5t19.5 27t7.5 42.5v122h56v-119q0 -37 -10 -63.5t-27 -43.5t-40 -25t-49 -8h-182z" />
<glyph unicode="&#xe55;" horiz-adv-x="510" d="M155 301q-21 0 -37 -11t-26.5 -28.5t-15.5 -40t-5 -46.5t5 -46.5t15.5 -40t26.5 -28.5t37 -11h171q-16 8 -32.5 21t-30 31.5t-22.5 42t-9 52.5h63q0 -32 14 -58.5t34 -46.5t43.5 -31t41.5 -11h35v-49h-308q-34 0 -60 14.5t-44 39t-27 56t-9 65.5t9 65.5t27 56t44 39 t60 14.5h46q-6 15 -6 29q0 16 6.5 30.5t17 25.5t25 17.5t30.5 6.5t30.5 -6.5t25 -17.5t17 -25.5t6.5 -30.5q0 -11 -5 -26q24 5 41.5 25t17.5 60v122h56v-119q0 -37 -10 -63.5t-27 -43.5t-40 -25t-49 -8h-182zM244 379q0 -11 8 -19.5t19 -9.5h5q12 1 20 9.5t8 19.5 q0 13 -9 22t-21 9t-21 -9t-9 -22z" />
<glyph unicode="&#xe56;" horiz-adv-x="549" d="M186 210q-21 81 -37 138.5t-34 93.5t-41 52.5t-57 16.5v49h14q50 0 81 -23.5t51 -61.5t33 -86.5t27 -98.5q26 31 56.5 49t80.5 18q36 0 68 -14.5t56 -39t37.5 -57.5t13.5 -70q0 -40 -14.5 -73.5t-38.5 -58t-56 -38t-66 -13.5q-27 0 -53 9t-48 25t-38.5 38t-25.5 49h58 q14 -34 41.5 -53t65.5 -19q25 0 46.5 10t38 27.5t26 42t9.5 54.5q0 57 -34 93.5t-86 38.5q-45 -2 -74.5 -27.5t-39.5 -70.5h-60z" />
<glyph unicode="&#xe57;" horiz-adv-x="687" d="M354 0q7 12 15.5 29.5t16 40t12.5 50.5t5 62q0 57 -21 92t-59 35q-15 0 -28.5 -8.5t-24.5 -21t-19.5 -27.5t-13.5 -28q-7 13 -15.5 28t-19.5 27.5t-24 21t-29 8.5q-15 0 -29.5 -6t-25.5 -21t-18 -39.5t-7 -60.5q0 -28 6 -53.5t18.5 -45t31 -31t44.5 -11.5q13 0 26 5l8 4 v-52q-6 -2 -13 -3.5t-21 -1.5q-32 0 -60 13.5t-49.5 38t-34 59.5t-12.5 78q0 46 10.5 79.5t28.5 54.5t43 31t54 10q26 0 42.5 -7.5t26 -17t14 -18t5.5 -10.5q0 1 4.5 9.5t14.5 18t26.5 17.5t40.5 8q28 0 52.5 -10t43 -31t29.5 -54.5t11 -79.5q0 -42 -8 -75.5t-17 -57.5 q11 1 25 6t26 15.5t20 26.5t8 39v302q0 22 6 46t20.5 44t38.5 33t61 13h14v-49q-26 0 -42.5 -7.5t-25.5 -19.5t-12.5 -27t-3.5 -30v-301q0 -37 -11.5 -63.5t-29.5 -43.5t-40.5 -25t-44.5 -8h-89z" />
<glyph unicode="&#xe58;" horiz-adv-x="519" d="M382 239q35 -10 62 -40.5t27 -84.5q0 -33 -10.5 -56t-28.5 -37.5t-43 -21t-54 -6.5q-47 0 -72.5 11.5t-41.5 23.5q-10 -12 -27.5 -23.5t-53.5 -11.5q-22 0 -45 12t-41.5 35.5t-30.5 59t-12 82.5q0 33 10.5 63.5t31.5 53.5t52.5 37t73.5 14h140q16 0 31 4t27 14.5t19 27 t7 42.5v122h56v-119q0 -37 -10 -63.5t-27 -43.5t-40 -25t-49 -8h-154q-26 0 -47 -10.5t-35.5 -27.5t-22 -39t-7.5 -45q0 -28 5.5 -53t16 -44t26.5 -30t36 -11q27 0 44.5 20t25.5 42q6 -10 17 -21t25.5 -20t32.5 -15t39 -6q12 0 26 3t26 11.5t20 22.5t8 36q0 29 -11 50 t-34 29z" />
<glyph unicode="&#xe59;" horiz-adv-x="593" d="M567 560v-112q0 -31 -4.5 -60t-15.5 -51.5t-30 -36t-48 -13.5q-32 0 -50.5 8.5t-31.5 19t-25 19.5t-30 9q-30 -4 -39 -22.5t-9 -39.5q0 -6 0.5 -12t3 -16.5t7.5 -28t13 -46.5l20 -72.5t29 -105.5h-56l-70 250q-3 9 -8 19t-14 19t-23 15t-35 6q-12 0 -27 -6t-28 -21 t-22 -39.5t-9 -60.5q0 -27 6.5 -52.5t19 -45t31.5 -31.5t43 -12q18 0 26 5l9 4v-52q-6 -2 -13.5 -3.5t-21.5 -1.5q-30 0 -57.5 13.5t-49 38t-34 59.5t-12.5 78q0 46 13 79.5t33.5 54.5t45 31t47.5 10q35 0 56 -8.5t37 -24.5q11 36 34 55.5t57 19.5q25 0 41 -10t28.5 -21.5 t23.5 -21.5t27 -10q32 0 44 30t12 82v112h56z" />
<glyph unicode="&#xe5a;" horiz-adv-x="510" d="M70 434q11 -42 33.5 -67t64.5 -25t72 23.5t42 68.5h61v-283q0 -36 -3.5 -64t-13.5 -47.5t-28 -29.5t-46 -10h-7v49h7q8 0 14.5 2.5t11 13t7 31.5t2.5 58v210q-6 -11 -16 -23.5t-24.5 -23t-34 -17.5t-44.5 -7q-64 0 -103.5 37.5t-50.5 103.5h56zM399 434h56v-434h-56v434z " />
<glyph unicode="&#xe5b;" horiz-adv-x="682" d="M223 -7q-39 0 -72 14.5t-57 39t-37.5 57.5t-13.5 70q0 40 14.5 73.5t39 58t56 38t66.5 13.5q57 0 101 -33.5t64 -87.5h-58q-14 34 -41.5 53t-65.5 19q-25 0 -46.5 -10t-38 -27.5t-26 -42t-9.5 -54.5q0 -28 9 -52t25.5 -42t39 -28t50.5 -10q34 3 60 17.5t45 31.5l52 -45 l39 45l46 -45l41 45q10 -16 29.5 -32t40.5 -16q20 0 27.5 11t7.5 23q0 22 -5 33.5t-9 15.5h56q4 -4 9 -15.5t5 -33.5q0 -14 -4.5 -28.5t-15 -27t-28.5 -20.5t-44 -8q-20 0 -39 14.5t-30 27.5l-41 -46l-46 46l-39 -46l-52 46q-19 -15 -45 -27t-60 -15z" />
<glyph unicode="&#x2013;" horiz-adv-x="410" d="M54 242h301v-49h-301v49z" />
<glyph unicode="&#x2014;" horiz-adv-x="599" d="M54 242h490v-49h-490v49z" />
<glyph unicode="&#x2018;" horiz-adv-x="153" d="M85 360h-56v56q0 13 6.5 27t16.5 28t22.5 28t24.5 26h42q-10 -14 -20 -29.5t-18 -30.5t-13 -28t-5 -21v-56z" />
<glyph unicode="&#x2019;" horiz-adv-x="155" d="M70 525h56v-56q0 -13 -7 -28t-17 -29.5t-22.5 -28t-22.5 -23.5h-42l27 44q11 18 18.5 36.5t9.5 28.5v56z" />
<glyph unicode="&#x201c;" horiz-adv-x="287" d="M97 360h-56v56q0 13 6.5 27t16 28t22 28t24.5 26h42q-10 -14 -19.5 -29.5t-17.5 -30.5t-13 -28t-5 -21v-56zM202 360h-56v56q0 13 6.5 27t16.5 28t22.5 28t24.5 26h42q-10 -14 -20 -29.5t-18 -30.5t-13 -28t-5 -21v-56z" />
<glyph unicode="&#x201d;" horiz-adv-x="288" d="M193 525h56v-56q0 -13 -7 -28t-17.5 -29.5t-22.5 -28t-23 -23.5h-42l28 44q11 18 18 36.5t10 28.5v56zM87 525h56v-56q0 -13 -6.5 -28t-17 -29.5t-23 -28t-23.5 -23.5h-41l27 44q11 18 18.5 36.5t9.5 28.5v56z" />
<glyph unicode="&#x2022;" horiz-adv-x="256" d="M128 308q39 0 65 -26.5t26 -64.5t-26 -64.5t-65 -26.5q-38 0 -64.5 26.5t-26.5 64.5t26.5 64.5t64.5 26.5z" />
<glyph unicode="&#x2026;" horiz-adv-x="582" d="M54 56h56v-56h-56v56zM262 56h57v-56h-57v56zM471 56h56v-56h-56v56z" />
<glyph unicode="&#x20ac;" horiz-adv-x="480" d="M27 319h44q23 90 90 134t162 44q34 0 60.5 -2t49.5 -13v-60q-30 14 -60 20t-61 6q-66 0 -113.5 -34.5t-69.5 -94.5h220v-49h-231q-1 -8 -1.5 -16.5t-0.5 -16.5v-11.5t1 -11.5h211v-49h-203q18 -60 62.5 -91.5t113.5 -31.5q38 0 70 8t62 23v-54q-30 -18 -64 -22t-74 -4 q-91 0 -150.5 45t-77.5 127h-40v49h34q-1 6 -1 11.5v11.5q0 8 0.5 16.5t1.5 16.5h-35v49z" />
<glyph unicode="&#xe000;" horiz-adv-x="350" d="M0 350h350v-350h-350v350z" />
<glyph horiz-adv-x="718" d="M400 143q0 -17 5 -35t16.5 -32.5t28.5 -24t41 -9.5h25q24 0 41.5 9.5t29.5 24t17.5 32.5t5.5 35v291h56v-287q0 -29 -8.5 -56.5t-25.5 -49t-42.5 -35t-59.5 -13.5h-53q-34 0 -59 13.5t-41.5 35t-24.5 49t-8 56.5v161q0 21 -12 37t-30.5 26.5t-40.5 15.5t-43 5 q-54 0 -85 -17.5t-41 -38.5l63 -56q-8 -10 -14.5 -30t-6.5 -54v-123q0 -8 2 -16t12 -8h28v-49h-42q-32 0 -44 19.5t-12 50.5v126q0 34 6.5 54t14.5 30l-28 25q-11 10 -20 16t-8 8q20 57 67.5 84.5t107.5 27.5q42 0 75.5 -11t57.5 -29.5t36.5 -42.5t12.5 -50v-165z" />
<glyph horiz-adv-x="426" d="M136 0l-45 168q-3 7 -11 7h-28v49h42q40 0 50 -31l38 -144q31 0 58.5 13.5t47 37t31 54t11.5 63.5q0 39 -12.5 71t-33 55t-47 36t-54.5 13q-27 0 -50.5 -10.5t-42.5 -26t-33 -34.5t-21 -36l-19 66q8 12 22 27.5t34.5 29.5t47.5 23.5t62 9.5q36 0 69 -13q9 3 21.5 7.5 t23.5 12t19 18t8 24.5h56q0 -20 -8 -35t-20 -25.5t-26.5 -17.5t-27.5 -10q42 -32 65 -81t23 -104q0 -49 -17 -89t-45.5 -68.5t-65 -44t-75.5 -15.5h-47z" />
<glyph d="M-109 778v-9q0 -26 -14 -37t-35 -11q-16 0 -26 4t-15.5 9.5t-7.5 10t-3 5.5q-4 -10 -12.5 -19.5t-33.5 -9.5q-10 0 -24 3t-26.5 11t-21.5 21t-9 34q0 26 11.5 41.5t28 23.5t33.5 10t29 2q59 0 91.5 11.5t55.5 23.5v-48q-18 -10 -47 -19t-89 -9q-20 0 -32 -3t-18 -8 t-8 -11.5t-2 -13.5q0 -9 8.5 -18.5t19.5 -9.5q14 0 23.5 8.5t13.5 17.5h19q3 -10 8.5 -18t13.5 -8q6 0 11.5 1.5t5.5 7.5v7h52z" />
<glyph d="M-50 798v-112h-56v112h56z" />
<glyph d="M-62 686h-106q-21 0 -32 0.5t-16.5 4t-6.5 11.5t-1 22v4q-1 8 -3.5 14.5t-10.5 6.5h-34v49h48q23 0 33 -10t15 -21.5t8.5 -21.5t13.5 -10h105z" />
<glyph d="M-224 784q4 4 15.5 9t33.5 5q23 0 33 -10t15 -21.5t8.5 -21.5t13.5 -10h56l-13 -49h-57q-33 0 -43.5 11t-12.5 24t-2 24t-12 11q-8 0 -14.5 -8.5t-6.5 -19.5h-28q0 10 -5 19t-13 9q-9 0 -11.5 -7.5t-2.5 -17.5q0 -19 6 -30t12 -15h-56q-8 8 -13 20t-5 39q0 19 13 36 t43 17q19 0 30.5 -5t15.5 -9z" />
<glyph d="M-50 798v-31h56v-49h-56v-32h-56v32h-56v49h56v31h56z" />
<glyph d="M-106 686v21q0 36 21 63.5t63 27.5h63l-12 -49h-37q-21 0 -31.5 -13.5t-10.5 -31.5v-18h-56z" />
<glyph d="M-157 764q0 16 6.5 30.5t17 25.5t25 17.5t30.5 6.5t30 -6.5t25 -17.5t17.5 -25.5t6.5 -30.5q0 -32 -23.5 -55t-55.5 -23q-16 0 -30.5 6.5t-25 17t-17 24.5t-6.5 30zM-110 764q0 -13 9 -22t23 -9t23 9t9 22q0 14 -9 23.5t-23 9.5t-23 -9.5t-9 -23.5z" />
<glyph d="M-106 686q-11 20 -11 39q0 33 24 53t59 20q0 32 23.5 47.5t74.5 15.5v-35q-14 0 -26.5 -1t-21.5 -7.5t-14.5 -21t-5.5 -40.5q-20 0 -38.5 -7.5t-18.5 -30.5q0 -15 11 -32h-56z" />
</font>
</defs>
</svg>
